<?xml version="1.0" encoding="UTF-8" standalone="no"?>
<svg width="192px" height="57px" viewBox="0 0 192 57" version="1.1" xmlns="http://www.w3.org/2000/svg" xmlns:xlink="http://www.w3.org/1999/xlink">
    <!-- Generator: Sketch 42 (36781) - http://www.bohemiancoding.com/sketch -->
    <title>logo-mandir</title>
    <desc>Created with Sketch.</desc>
    <defs></defs>
    <g id="Assets" stroke="none" stroke-width="1" fill="none" fill-rule="evenodd">
        <g id="logo-mandir">
            <path d="M75.8598257,38.2276977 C76.7191832,39.1440159 77.3956894,40.2222659 77.8928027,41.4624477 C78.3890514,42.7021977 78.6363112,44.0287432 78.6363112,45.4425159 C78.6363112,47.0363568 78.2926546,48.6643114 77.6023156,50.3255159 C76.914138,51.9858568 75.8213534,53.6358341 74.3243942,55.2741523 L69.9606045,52.5454932 C70.2307747,52.1853568 70.7369657,51.6589705 71.4739901,50.9663341 C72.2131759,50.2758568 72.8611522,49.5732886 73.4196481,48.8577659 C73.9772795,48.1439705 74.4514823,47.2578795 74.8435533,46.1969023 C75.2347598,45.1380841 75.4314437,43.8862432 75.4314437,42.442675 C75.4314437,38.8335386 73.7209419,37.0298341 70.2986415,37.0298341 C69.3039828,37.0298341 68.2833877,37.3230386 67.2351272,37.9103114 C66.1881635,38.4967205 65.2522938,39.3072432 64.4314085,40.3457659 C63.610091,41.3829932 62.9461206,42.6162659 62.4416587,44.0438568 C61.9367646,45.4727432 61.6843175,46.9543114 61.6843175,48.4876977 L61.6843175,55.0504705 L57.9883887,53.1107432 L57.9883887,36.1515159 L61.8650074,36.1515159 L61.8650074,38.8335386 C62.1805662,38.5925841 62.7036158,38.1879705 63.4341561,37.616675 C64.1638319,37.0462432 65.0521516,36.519425 66.0973863,36.0379477 C67.1430531,35.5581977 68.2756068,35.3172432 69.4933181,35.3172432 C70.6837962,35.3172432 71.8275889,35.5737432 72.9255608,36.0841523 C74.0235326,36.5958568 75.0034941,37.3100841 75.8598257,38.2276977 Z M106.185592,21.4365341 C106.126371,21.3471477 106.01398,20.9986705 105.848852,20.3885114 C105.683724,19.7809432 105.361681,19.0701705 104.881426,18.2596477 L104.881426,17.7418977 L105.758074,17.7418977 C107.512236,18.2825341 108.75718,18.7735114 109.492476,19.2174205 C110.227771,19.6613295 110.695922,20.0888295 110.898225,20.5025114 C111.101393,20.9148977 111.389719,21.7651477 111.764499,23.0485114 C112.139712,24.3336023 112.581926,25.4865568 113.092008,26.5078068 C113.106273,26.6442614 113.117079,26.7677614 113.125293,26.8804659 C113.133074,26.9936023 113.137396,27.191375 113.137396,27.4776705 C113.076878,27.5372614 112.904834,27.5674886 112.619966,27.5674886 C112.379191,27.5674886 112.169106,27.5372614 111.989713,27.4776705 C110.910761,25.3587386 110.219125,24.0671705 109.920425,23.6021023 C109.590169,23.1495568 109.172594,22.8567841 108.67159,22.721625 C108.16929,22.5873295 107.696384,22.455625 107.253305,22.327375 C106.81109,22.1995568 106.457059,21.9024659 106.185592,21.4365341 Z M108.131639,52.7313477 L108.131639,35.3346886 L111.895002,35.3346886 L111.895002,54.8265295 L108.131639,52.7313477 Z M131.227174,36.0333705 C132.272841,36.4608705 133.165916,37.0792341 133.903372,37.889325 C134.641261,38.6981205 135.009557,39.6209159 135.009557,40.6551205 C135.009557,41.6314614 134.457113,42.6354386 133.35309,43.6696432 C132.247337,44.7060068 131.318383,45.4033932 130.565797,45.7622341 L127.182834,41.9324386 C128.445934,41.8119614 129.509324,41.3581205 130.375165,40.5687568 C131.238845,39.7806886 131.671118,39.0034159 131.671118,38.2369386 C131.671118,37.9212795 131.42429,37.542575 130.927177,37.0990977 C130.430496,36.6564841 129.785546,36.4340977 128.988868,36.4340977 C128.011932,36.4340977 126.905747,36.8857795 125.674203,37.7856886 C124.441362,38.687325 123.393102,39.8502114 122.528557,41.2769386 C121.664877,42.7019386 121.232172,44.1368705 121.232172,45.5774159 L121.232172,55.1253477 L116.872705,52.8742795 L116.872705,36.212575 L121.253786,36.212575 L121.253786,37.9212795 C121.37439,37.8025295 121.818766,37.5257341 122.586481,37.0939159 C123.354197,36.6603705 124.247704,36.2687114 125.263977,35.9185068 C126.280249,35.5678705 127.30776,35.3921205 128.347808,35.3921205 C129.220133,35.3921205 130.179778,35.6067341 131.227174,36.0333705 Z M114.468449,29.8446818 L136.883069,29.8446818 L136.883069,32.5625455 L114.468449,32.5625455 L114.051739,32.5625455 L105.860609,32.5625455 L105.309894,32.5625455 L102.905595,32.5625455 L102.860639,54.5762045 L98.7683166,52.8148182 L98.7683166,49.5887045 C97.5657348,51.1380682 96.4119998,52.3121818 95.3062471,53.1101818 C94.2026557,53.9068864 92.9659244,54.3058864 91.5995114,54.3058864 C90.2758934,54.3058864 88.7953605,53.7812273 87.158345,52.7288864 C85.5183036,51.6774091 84.1242252,50.3318636 82.9748129,48.6948409 C81.8249684,47.0573864 81.2509107,45.4199318 81.2509107,43.7820455 C81.2803052,43.1654091 81.49428,42.4036818 81.8919706,41.496 C82.2913903,40.5865909 82.8766871,39.6625 83.6521837,38.7237273 C84.425519,37.7836591 85.3622533,37.0059545 86.4589283,36.3906136 C87.5560356,35.7752727 88.7810955,35.4665227 90.134108,35.4665227 C91.6967727,35.4665227 93.0411398,35.9363409 94.1689384,36.8751136 C95.2963048,37.8151818 96.8295749,39.3373409 98.7683166,41.4402955 L98.7683166,32.5625455 L80.2614392,32.5625455 L79.4682194,32.5625455 L56.5180142,32.5625455 L56.001881,32.5625455 L41.4831486,32.5625455 L41.4831486,36.1449091 C41.5579317,36.1449091 41.6188821,36.1747045 41.6638384,36.2347273 C41.7087947,36.2956136 41.7602352,36.3245455 41.8216178,36.3245455 C41.7909265,36.3245455 42.1034594,36.2347273 42.7583521,36.0542273 C43.4128125,35.8737273 44.1623728,35.7130909 45.0044394,35.5692955 C45.8473705,35.4267955 46.6609071,35.3551136 47.4428879,35.3551136 C49.2484896,35.3551136 50.6715303,35.6034091 51.7094162,36.0991364 C52.7473022,36.5944318 53.4964303,37.2944091 53.9555035,38.1960455 C54.4141445,39.0981136 54.6933925,40.1098636 54.7897892,41.2295682 C54.8883473,42.3497045 54.9380586,43.8861136 54.9380586,45.8405227 L54.9380586,54.7485 C54.1089602,54.4164318 53.3641549,54.0899773 52.7019136,53.7669773 C52.0383755,53.44225 51.57887,53.2056136 51.3221002,53.0557727 C51.3221002,52.55875 51.2326198,52.2495682 51.05193,52.1286591 C50.5561135,52.4158182 49.9989144,52.7280227 49.382494,53.067 C48.7660736,53.4064091 47.9616147,53.7030682 46.9691173,53.9595682 C45.978349,54.2152045 44.7978132,54.3430227 43.4296711,54.3430227 C42.1224794,54.3430227 40.8429532,54.1037955 39.5962796,53.6223182 C38.347877,53.1425682 37.3372242,52.4555455 36.5630243,51.5629773 C35.7883922,50.6695455 35.4019407,49.6599545 35.4019407,48.5337727 C35.4019407,47.4827273 35.8904085,46.3833182 36.8682086,45.2351136 C37.8451442,44.0869091 39.1527682,43.1330227 40.7910805,42.37475 C42.4293928,41.6169091 44.2185682,41.2377727 46.1594712,41.2377727 C47.2103253,41.2377727 48.2101713,41.3919318 49.1568478,41.7015455 C50.1039566,42.0102955 50.8254192,42.3527273 51.3221002,42.7292727 L51.3221002,40.6470455 C50.7355066,39.8589773 50.1497775,39.3140227 49.5631839,39.01175 C48.9774548,38.7086136 48.0753024,38.5566136 46.8580233,38.5566136 C45.2789323,38.6179318 44.035717,38.7496364 43.1262159,38.9543182 C42.2162825,39.1581364 41.2406438,39.4768182 40.1954091,39.9082045 C39.1501745,40.3391591 38.274823,40.6772727 37.5680576,40.9195227 L37.5680576,39.2388864 C37.6726675,39.1486364 37.8239629,39.0195227 38.0197823,38.8537045 C38.2156017,38.6870227 38.3470125,38.56525 38.4148792,38.4896818 C38.4814492,38.4145455 38.5233796,38.3683409 38.5385091,38.3532273 L38.5385091,32.5625455 L34.8313412,32.5625455 L33.8959038,32.5625455 L27.3997144,32.5625455 L27.445103,35.7022955 C29.4396078,36.4407045 30.9067403,37.4131591 31.8443391,38.6244091 C32.7823701,39.8360909 33.2518179,41.5538636 33.2518179,43.7798864 C33.2518179,45.4501591 32.8796314,46.9770682 32.1365552,48.3606136 C31.393479,49.7445909 30.5233147,50.8845909 29.5251977,51.7784545 C28.5279454,52.6740455 27.5773784,53.3813636 26.6765228,53.9004091 C25.7769639,54.4190227 25.266018,54.6789773 25.1458463,54.6789773 C24.9202001,54.6789773 24.3020506,54.1819545 23.2879396,53.1896364 C22.2742608,52.19775 21.4473238,51.3699545 20.8010766,50.7079773 C22.2128782,50.6328409 23.7824592,50.1677727 25.5106841,49.3093182 C27.2380446,48.4525909 28.7177129,47.34325 29.9505538,45.9825909 C31.1816655,44.6210682 31.7980859,43.1809545 31.7980859,41.6618182 C31.7980859,40.8797955 31.5650911,40.2294773 31.0986692,39.7108636 C30.6331118,39.19225 30.0274982,38.8005909 29.2839897,38.5384773 C28.5387522,38.2759318 27.7399128,38.1429318 26.8827167,38.1429318 C24.2808692,38.2936364 22.2604281,39.1313636 20.8244193,40.6565455 C19.3879782,42.1821591 18.4227139,44.1775909 17.926033,46.6415455 C17.8205585,46.6121818 17.1954927,46.36 16.0525645,45.8875909 C14.909204,45.4130227 13.9919221,45.0330227 13.3002862,44.7480227 C13.3002862,44.0126364 13.4476911,43.2759545 13.7412041,42.5397045 C14.0351493,41.8025909 14.372754,41.1276591 14.7566119,40.5101591 C15.1400375,39.8948182 15.3336955,39.57225 15.3336955,39.5420227 C15.3336955,39.1365455 14.9636704,38.8575909 14.226646,38.70775 C13.4883247,38.5574773 12.841213,38.4823409 12.2848784,38.4823409 C11.0498762,38.4823409 9.88576673,38.8057727 8.7938467,39.4509091 C7.70322348,40.0977727 6.8421369,40.92125 6.20929014,41.9200455 C5.57730792,42.9197045 5.26088454,43.9223864 5.26088454,44.9289545 C5.26088454,46.0564318 5.56866247,47.1463409 6.18551516,48.19825 C6.80409693,49.2501591 7.46547367,50.15525 8.17353583,50.9143864 C8.88116572,51.6735227 9.75867865,52.5151364 10.8043455,53.4396591 C11.8521738,54.3624545 12.4046179,54.9000682 12.4655683,55.0507727 C11.5011686,54.7195682 10.3681827,54.2320455 9.06574602,53.5851818 C7.76330934,52.9374545 6.46476312,52.1226136 5.17053961,51.1380682 C3.87588384,50.1539545 2.80255152,49.0364091 1.95183947,47.78975 C1.10112743,46.5409318 0.675771411,45.2040227 0.675771411,43.7747045 C0.675771411,42.13725 1.14176104,40.6738182 2.07590165,39.3887273 C3.00960999,38.1032045 4.21046266,37.1035455 5.6793242,36.3893182 C7.14602438,35.6750909 8.65508726,35.3171136 10.2069451,35.3171136 C11.4410827,35.3171136 12.5403514,35.4958864 13.5038865,35.84825 C14.4665571,36.2036364 15.3527155,36.6212045 16.1571744,37.1035455 C16.9629301,37.5863182 17.4025511,37.8268409 17.4794956,37.8268409 C17.4937606,37.8268409 17.9087421,37.6385682 18.7201173,37.2615909 C19.5332217,36.8850455 20.3718301,36.537 21.2385362,36.2209091 C22.1039455,35.9048182 22.8383763,35.7022955 23.4405317,35.6116136 L23.4863526,32.5625455 L0.000129681714,32.5625455 L0.000129681714,29.8446818 L33.8959038,29.8446818 L34.8313412,29.8446818 L56.001881,29.8446818 L56.5180142,29.8446818 L79.4682194,29.8446818 L80.2614392,29.8446818 L98.7683166,29.8446818 C98.7683166,28.26725 98.7255216,26.9640227 98.6429576,25.9337045 C98.5608258,24.9046818 98.3343151,23.7780682 97.9638577,22.5525682 C97.5938325,21.3283636 96.9873543,19.9422273 96.1418296,18.3950227 C95.295008,16.8469545 94.1559703,15.1183864 92.7221228,13.2101818 C92.6616046,13.2101818 92.6313456,13.0897045 92.6313456,12.8500455 C92.6313456,12.6695455 92.6771665,12.5490682 92.7670791,12.4886136 L97.0928288,12.4886136 C98.5188954,14.0664773 99.845107,16.1633864 101.069735,18.7784773 C102.293498,21.3922727 102.905595,25.0804318 102.905595,29.8446818 L105.309894,29.8446818 L105.860609,29.8446818 L114.051739,29.8446818 L114.468449,29.8446818 Z M96.2572463,46.2576591 C97.2099746,44.8309318 97.6854742,43.6827273 97.6854742,42.8121818 C97.6854742,41.8660682 97.1416756,40.9393864 96.053646,40.0312727 C94.966481,39.1227273 93.6752834,38.6693182 92.18135,38.6693182 C91.6219896,38.6693182 90.7016817,38.9685682 89.4178327,39.5692273 C88.1339837,40.1703182 86.9681451,41.0568409 85.9194523,42.2262045 C84.8694627,43.3985909 84.3438195,44.7937955 84.3438195,46.4161364 C84.3438195,47.9616136 84.7830083,49.2233864 85.6583598,50.1992955 C86.5337114,51.1743409 87.5305315,51.6618636 88.6483879,51.6618636 C89.9460696,51.6618636 91.3012435,51.1182045 92.7130451,50.0300227 C94.1252789,48.9418409 95.3053825,47.6848182 96.2572463,46.2576591 Z M50.5561135,47.9063409 C51.0666272,47.3665682 51.3221002,47.0077273 51.3221002,46.8263636 C51.3221002,46.1389091 50.5474681,45.5624318 49.0003652,45.0982273 C47.4515333,44.6348864 46.3548583,44.4021364 45.7073143,44.4021364 C44.0690019,44.4021364 42.5767977,44.7462955 41.2311338,45.4350455 C39.8859021,46.1237955 38.8289962,46.9209318 38.0625772,47.8260227 C37.2970228,48.7319773 36.913165,49.4764318 36.913165,50.0593864 C37.1241139,50.6889773 37.5931294,51.1190682 38.3228052,51.3518182 C39.0520487,51.5832727 39.8292744,51.6994318 40.6570761,51.6994318 C42.1903462,51.6994318 43.6142514,51.4982045 44.9300885,51.0944545 C46.2446288,50.6898409 47.3849634,50.1923864 48.3459049,49.6012273 C49.3090077,49.0096364 50.0438708,48.4439545 50.5561135,47.9063409 Z" id="mandir" fill="#0069AA"></path>
            <path d="M8.63995773,24.8617591 C8.6732427,24.1889864 8.70652767,21.1602136 8.70652767,20.7892818 L8.70652767,18.6694864 C8.70652767,14.83235 7.56100587,11.4671909 4.99979202,8.74069091 C3.68611626,7.32691818 2.06941756,6.21628182 0.4177048,5.4416 L0.957613002,4.36464545 C2.84448194,5.23907727 4.89907256,6.85537273 5.67500148,7.7311 C7.19011617,9.44714545 8.74024492,11.4671909 9.41458983,14.9670773 L9.48072751,14.9670773 C10.2225069,11.9711227 11.4696127,9.91782727 13.2207481,8.10030455 C14.6364402,6.62046364 17.2313713,4.90269091 19.0503734,4.36464545 L19.4549804,5.54178182 C17.2979412,6.18216818 15.1413343,7.52857727 13.4572011,9.51407727 C10.8631346,12.5778273 10.0215003,15.5055545 10.0215003,18.6694864 L10.0215003,21.3281909 C10.0215003,21.7323727 10.0539207,24.2896 10.1222197,24.8617591 L8.63995773,24.8617591 Z M20.3988904,15.8752341 C20.3988904,9.54823409 24.9809776,4.36468864 32.1908486,4.36468864 C37.8168736,4.36468864 41.996083,7.93193864 41.996083,14.1255068 C41.996083,18.5684841 39.1314139,25.3333477 30.2702624,25.3333477 C24.0710442,25.3333477 20.3988904,20.8566886 20.3988904,15.8752341 Z M40.5462414,14.2269841 C40.5462414,8.976075 37.109676,5.44164318 31.8536761,5.44164318 C25.7218924,5.44164318 21.8470028,10.2883705 21.8470028,15.5055977 C21.8470028,20.0496205 24.7782418,24.2563932 30.6407198,24.2563932 C36.3021912,24.2563932 40.5462414,20.1839159 40.5462414,14.2269841 Z M64.1996241,20.957475 C64.1996241,22.0685432 64.2674908,24.0549068 64.2674908,24.5255886 C63.3234079,24.8282932 61.3691045,25.3335205 57.9662563,25.3335205 C51.1268428,25.3335205 46.9476334,21.7321568 46.9476334,16.9523614 C46.9476334,13.5198386 50.3513461,6.95620227 61.8065642,4.29749773 L62.1778861,5.54199773 C53.9227805,7.09092955 48.4640449,11.8711568 48.4640449,16.9860432 C48.4640449,20.7894977 51.6991714,24.2228841 58.1676953,24.2228841 C59.9871297,24.2228841 61.6721275,24.1214068 62.885516,23.7858841 L62.885516,21.5296341 C62.885516,19.5449977 62.817217,16.9523614 62.817217,16.1111795 L64.232909,16.1111795 C64.1996241,16.7839523 64.1996241,18.601475 64.1996241,19.4430886 L64.1996241,20.957475 Z M67.7375141,24.7943523 C69.8266865,21.1601705 77.5756012,5.07105682 78.2832311,3.79244318 L78.3839505,3.79244318 C80.5396929,7.76344318 87.2779548,20.7559886 89.7380169,24.7615341 L88.5587778,25.3669432 C87.8169984,24.2895568 84.7180377,18.4336705 84.2127113,17.6253068 L72.6563415,17.9629886 C72.2184496,18.9039205 69.5223668,24.4251477 68.9828908,25.400625 L67.7375141,24.7943523 Z M83.7078172,16.5151023 C83.1687735,15.4713977 79.2938839,7.96553409 78.349801,6.11519318 C77.2384287,8.43794318 73.6328448,16.009875 73.2619551,16.8519205 L83.7078172,16.5151023 Z" id="yoga" fill="#221F20"></path>
            <path d="M162.894584,9.3271 C160.659736,9.3366 160.986101,11.9054864 158.749524,11.9145545 C161.220825,5.23907727 166.163428,1.0336 175.329764,1.04612273 C178.857971,1.48873636 181.513852,2.80405455 184.136449,4.15175909 C186.68383,7.12871364 189.548067,9.78828182 191.391276,13.4682364 C185.474764,9.23382727 177.46908,3.81796364 167.557074,6.73921364 C166.071354,7.67150909 164.087223,8.10332727 162.894584,9.3271 Z M138.025003,5.70371364 C134.466537,5.6411 130.788763,7.00737273 127.661273,8.29246364 C124.611591,9.54603182 121.299952,12.2885091 118.334996,9.84441818 C118.737009,7.65769091 122.353832,8.68196364 122.998783,6.73921364 C127.332313,4.39271364 131.147549,-0.297263636 139.059863,0.527940909 C141.003792,0.731759091 143.900881,2.03844091 145.796828,3.11625909 C148.592766,4.70707727 152.231202,8.22769091 153.049926,11.9145545 C148.214528,8.81971364 144.446409,5.81771364 138.025003,5.70371364 Z M152.013856,17.0910614 C151.000177,19.7009705 147.717501,20.0446977 144.242031,20.1958341 C134.844862,24.5736068 126.856468,17.3583568 120.926555,13.4681068 C121.503639,12.1476068 124.935017,13.6758114 125.58991,12.4326068 C129.305291,10.3926977 134.729877,8.82260682 139.05995,11.3979705 C142.867405,11.2183341 146.255556,11.4562659 148.904953,12.4326068 C150.034913,13.8917205 150.841101,15.6746977 152.013856,17.0910614 Z M143.205874,18.6434477 C144.720124,16.3198341 148.413027,18.697425 149.42368,16.5733114 C148.657261,15.9743795 148.116488,15.9743795 147.350069,16.5733114 C147.540701,14.8326523 145.105711,15.7114023 144.242031,15.020925 C144.318111,16.3440159 141.946232,17.8489023 143.205874,18.6434477 Z M136.988068,15.020925 C138.932861,14.6309932 138.117596,16.9973568 139.578676,17.0910614 C142.047816,17.8316295 140.86728,14.9263568 143.205874,15.5378114 C142.769711,18.9392432 136.476258,19.9479705 136.988068,15.020925 Z M130.253264,17.0910614 C133.104533,17.0034023 134.177001,18.6909477 136.988068,18.6434477 C136.830289,17.0768114 135.386499,16.7935386 135.952343,14.5036068 C132.886668,13.1045159 130.612483,14.9419023 128.698381,15.020925 C128.242766,16.6842886 130.407153,15.7299705 130.253264,17.0910614 Z M127.144794,13.985425 C129.040308,14.3261295 129.131518,12.8657205 130.771559,12.949925 C136.059115,12.6705386 139.132571,14.6046523 144.76119,13.985425 C145.075452,14.8792886 147.218226,13.9448341 147.350069,15.020925 C149.502786,14.9492432 147.455976,14.6797886 147.350069,13.985425 C146.94892,13.8696977 146.329474,13.971175 146.315641,13.4681068 C141.297824,13.8217659 137.845696,12.6131068 133.879165,11.914425 C130.992018,11.9640841 128.267405,12.1743795 127.144794,13.985425 Z M185.692067,13.46815 C187.048106,14.1845364 189.566525,13.7380364 189.83583,15.5378545 C184.02609,16.6359682 180.747736,20.2615136 174.812204,21.2309455 C170.176947,21.5466045 166.655224,20.7524909 163.412317,19.6789909 C161.83409,20.8772864 161.178765,17.6969455 159.268554,17.6088545 C159.964512,14.6798318 161.639135,12.7310364 163.930179,11.3980136 C170.836595,12.2612182 175.839283,9.62842273 181.546575,10.8798318 C182.486335,12.1839227 184.752307,12.1636273 185.692067,13.46815 Z M177.919378,13.46815 C179.094726,13.7082409 182.265444,14.6016727 182.582732,13.9854682 C181.126839,13.3701273 179.603511,12.8204227 177.919378,12.43265 C174.692464,13.6944227 169.99107,13.4836955 165.485927,13.46815 C164.51245,14.0774455 161.264787,15.0775364 162.376592,16.0556045 C163.10281,15.2291045 164.161012,14.7342409 165.485927,14.50365 C170.231413,14.7579909 174.198809,14.2359227 177.919378,13.46815 Z M179.474694,17.0911045 C180.298605,16.3008773 182.369622,16.4692864 182.06487,15.0209682 C179.972239,15.8366727 178.07586,13.7289682 175.329634,15.0209682 C175.243612,16.4865591 174.379931,17.1770364 174.293477,18.6434909 C176.071846,18.3969227 178.980606,17.5652409 179.474694,17.0911045 Z M172.220731,18.6434909 C173.198531,17.89515 174.518691,17.4870818 174.293477,15.5378545 C172.060358,15.0317636 172.785279,17.4827636 171.185006,17.6088545 C170.021761,17.0457636 170.2232,15.1185591 168.076103,15.5378545 C168.324228,17.70515 169.614561,18.8304682 172.220731,18.6434909 Z M162.894454,17.0911045 C164.863455,16.7063545 166.606809,19.2091727 168.076103,17.6088545 C167.117755,17.5306955 167.757951,15.8565364 167.039082,15.5378545 C164.796021,15.1941273 163.829459,16.12815 162.894454,17.0911045 Z M150.459923,22.2666614 C153.95009,14.2741386 166.035562,20.3623432 161.858081,27.9597523 C161.738774,28.1795477 160.904056,28.2926841 160.821492,28.4779341 C159.633175,31.1111614 156.2005,32.3370932 154.603686,35.7234114 C154.476598,39.1282977 156.350931,40.5351614 156.677297,43.4866386 L156.677297,50.7338432 C156.317214,52.7880023 157.579882,56.4666614 155.641572,56.9451159 C153.19664,56.947275 155.261172,54.8663432 154.087121,54.3567977 C153.402834,51.0754114 154.808151,48.5363205 154.603686,45.556775 C154.33049,41.524025 151.930946,38.512525 152.531805,35.206525 C153.464648,30.0795477 159.652628,30.7385023 160.30363,24.8545477 C160.754058,20.3934341 151.839304,19.5699568 152.531805,24.8545477 C152.837854,25.9284795 153.530354,26.618525 154.603686,26.9242523 C156.263612,26.8564568 156.883491,25.7514341 156.677297,23.8199114 C154.727748,23.4256614 156.32024,26.5684341 154.087121,25.8900477 C152.482958,23.6454568 154.643888,21.4859341 157.712157,22.2666614 C160.427692,25.4569341 157.706105,30.4211159 152.531805,28.9948205 C151.058188,27.5348432 149.992204,25.6659341 150.459923,22.2666614 Z M158.231532,7.25696364 C156.165702,8.38789545 153.516305,8.57357727 153.049883,5.70371364 C153.570771,5.01712273 153.540512,3.77780455 154.60347,3.63357727 C156.08919,3.53253182 157.432261,3.56966818 157.195375,5.18725909 C156.56858,3.20996364 153.101324,5.21316818 154.60347,4.66907727 C155.786167,4.52398636 156.551722,4.79430455 156.677081,5.70371364 C155.964696,5.7266 155.540637,5.46016818 155.122629,5.18725909 C154.815284,6.83766818 156.095242,6.78757727 155.122629,7.77471364 C161.451097,7.23537273 155.35865,-0.0390363636 152.532021,4.66907727 C151.491973,8.52003182 157.035002,10.3189864 158.231532,7.25696364 Z" id="Combined-Shape" fill="#221F20"></path>
            <path d="M135.952214,14.5036068 C135.386369,16.7935386 136.830159,17.0768114 136.987938,18.6434477 C134.177303,18.6909477 133.104403,17.0034023 130.253135,17.0910614 C130.407024,15.7299705 128.242636,16.6842886 128.698683,15.020925 C130.612353,14.9419023 132.886538,13.1045159 135.952214,14.5036068 Z M139.578849,17.0911477 C138.117336,16.9974432 138.933034,14.6310795 136.988241,15.0210114 C136.475998,19.9480568 142.769884,18.9393295 143.206047,15.5378977 C140.867021,14.9264432 142.047989,17.8312841 139.578849,17.0911477 Z M147.350026,16.5733114 C148.116445,15.9743795 148.657218,15.9743795 149.423637,16.5733114 C148.412984,18.697425 144.720081,16.3198341 143.205831,18.6434477 C141.946189,17.8489023 144.318068,16.3440159 144.241988,15.020925 C145.105668,15.7114023 147.540658,14.8326523 147.350026,16.5733114 Z M144.761017,13.9855545 C139.132398,14.6047818 136.058942,12.6706682 130.771818,12.9500545 C129.131777,12.86585 129.040567,14.3262591 127.144621,13.9855545 C128.267664,12.1745091 130.992277,11.9642136 133.878992,11.9145545 C137.845524,12.6132364 141.297651,13.8218955 146.315901,13.4682364 C146.329301,13.9713045 146.94918,13.8698273 147.349896,13.9855545 C147.455803,14.6799182 149.503045,14.9493727 147.349896,15.0210545 C147.218486,13.9449636 145.075711,14.8794182 144.761017,13.9855545 Z" id="Combined-Shape" fill="#FFFFFF"></path>
            <path d="M175.329547,15.0210545 C178.075774,13.7286227 179.972153,15.8367591 182.064783,15.0210545 C182.369535,16.4693727 180.298518,16.3009636 179.474607,17.0911909 C178.98052,17.5653273 176.071759,18.3970091 174.29339,18.6435773 C174.380277,17.1771227 175.243525,16.4866455 175.329547,15.0210545 Z M174.293607,15.5378545 C174.518821,17.4870818 173.198661,17.89515 172.220861,18.6434909 C169.61469,18.8304682 168.323925,17.70515 168.075801,15.5378545 C170.22333,15.1185591 170.021459,17.0457636 171.185136,17.6088545 C172.785408,17.4827636 172.060488,15.0317636 174.293607,15.5378545 Z M165.486057,13.46815 C169.9912,13.4836955 174.692594,13.6944227 177.919507,12.43265 C179.603641,12.8204227 181.126968,13.3701273 182.582862,13.9854682 C182.265142,14.6016727 179.094424,13.7082409 177.919507,13.46815 C174.198507,14.2359227 170.231543,14.7579909 165.486057,14.50365 C164.161142,14.7342409 163.102507,15.2291045 162.376722,16.0556045 C161.264485,15.0775364 164.51258,14.0774455 165.486057,13.46815 Z M162.894454,17.0911045 C163.829459,16.12815 164.796021,15.1941273 167.039082,15.5378545 C167.757951,15.8565364 167.117755,17.5306955 168.076103,17.6088545 C166.606809,19.2091727 164.863455,16.7063545 162.894454,17.0911045 Z" id="Combined-Shape" fill="#FFFFFF"></path>
            <path d="M165.486057,5.18725909 C167.542809,4.50844091 169.744804,2.84119091 172.220861,2.59894091 C177.238678,2.10796364 181.749873,4.4821 184.655176,6.73921364 C183.572766,8.1206 182.181713,5.44980455 180.51098,5.70371364 C176.6322,3.05753182 168.557352,4.1116 164.96733,6.22275909 C163.979155,5.77669091 165.527123,5.91487273 165.486057,5.18725909 Z M125.071529,7.25696364 C125.484781,5.42605455 128.096571,5.79353182 128.698726,4.15175909 C132.006907,3.23069091 135.511771,1.62864545 139.579022,2.08162273 C142.893687,2.45125909 145.283721,4.34780455 147.349983,5.70371364 C146.513103,7.00435 144.857933,4.78437273 143.72365,4.66907727 C135.002987,1.57035 127.458105,6.50430455 121.963058,9.84441818 C120.713791,8.72903182 123.990416,7.76003182 125.071529,7.25696364 Z" id="Combined-Shape" fill="#FFFFFF"></path>
        </g>
    </g>
</svg>